STARTFONT 2.1
COMMENT Font converted from VGA/EGA to BDF.
COMMENT VGA and BDF created by Serge Winitzki.
COMMENT Public domain. February 2000.
FONT -winitzki-proof-Medium-R-Normal--16-160-75-75-C-90-KOI8-C
SIZE 16 75 75
FONTBOUNDINGBOX 9 16 0 -4
STARTPROPERTIES 21
POINT_SIZE 160
PIXEL_SIZE 16
RESOLUTION_X 75
RESOLUTION_Y 75
FONT_ASCENT 12
FONT_DESCENT 4
AVERAGE_WIDTH 90
SPACING "C"
_XMBDFED_INFO "Edited with xmbdfed 3.8."
_ORIGINAL_FONT_NAME "custom.f16"
FOUNDRY "proof"
FAMILY_NAME "Unknown"
WEIGHT_NAME "Medium"
SLANT "R"
SETWIDTH_NAME "Normal"
ADD_STYLE_NAME ""
CHARSET_REGISTRY "KOI8"
CHARSET_ENCODING "C"
_XFREE86_GLYPH_RANGES "0_255"
X_HEIGHT 8
CAP_HEIGHT 11
ENDPROPERTIES
CHARS 256
STARTCHAR char0
ENCODING 0
SWIDTH 540 0
DWIDTH 9 0
BBX 8 10 0 0
BITMAP
C6
C6
82
00
00
00
00
82
C6
C6
ENDCHAR
STARTCHAR uni25C6
ENCODING 1
SWIDTH 540 0
DWIDTH 9 0
BBX 8 7 0 1
BITMAP
10
38
7C
FE
7C
38
10
ENDCHAR
STARTCHAR shade
ENCODING 2
SWIDTH 540 0
DWIDTH 9 0
BBX 8 16 0 -4
BITMAP
DD
77
DD
77
DD
77
DD
77
DD
77
DD
77
DD
77
DD
77
ENDCHAR
STARTCHAR multi
ENCODING 3
SWIDTH 540 0
DWIDTH 9 0
BBX 8 6 0 1
BITMAP
42
24
18
18
24
42
ENDCHAR
STARTCHAR divide
ENCODING 4
SWIDTH 540 0
DWIDTH 9 0
BBX 8 8 0 0
BITMAP
18
18
00
FF
FF
00
18
18
ENDCHAR
STARTCHAR promille
ENCODING 5
SWIDTH 540 0
DWIDTH 9 0
BBX 8 12 0 -1
BITMAP
E6
A6
EC
0C
18
18
30
30
7E
6D
ED
FE
ENDCHAR
STARTCHAR approx
ENCODING 6
SWIDTH 540 0
DWIDTH 9 0
BBX 8 6 0 2
BITMAP
72
FE
8C
72
FE
8C
ENDCHAR
STARTCHAR degree
ENCODING 7
SWIDTH 540 0
DWIDTH 9 0
BBX 8 11 0 -4
BITMAP
C6
C6
C6
C6
C6
C6
C6
FB
C0
C0
C0
ENDCHAR
STARTCHAR plusminus
ENCODING 8
SWIDTH 540 0
DWIDTH 9 0
BBX 8 9 0 1
BITMAP
18
18
18
FF
18
18
18
00
FF
ENDCHAR
STARTCHAR pilcrow
ENCODING 9
SWIDTH 540 0
DWIDTH 9 0
BBX 8 11 0 -1
BITMAP
3F
7A
7A
7A
7A
3A
0A
0A
0A
0A
1B
ENDCHAR
STARTCHAR ddagger
ENCODING 10
SWIDTH 540 0
DWIDTH 9 0
BBX 8 11 0 -1
BITMAP
10
38
54
FE
54
10
54
FE
54
38
10
ENDCHAR
STARTCHAR SF040000
ENCODING 11
SWIDTH 540 0
DWIDTH 9 0
BBX 8 8 0 4
BITMAP
18
18
18
18
18
18
18
F8
ENDCHAR
STARTCHAR SF030000
ENCODING 12
SWIDTH 540 0
DWIDTH 9 0
BBX 8 9 0 -4
BITMAP
F8
18
18
18
18
18
18
18
18
ENDCHAR
STARTCHAR SF010000
ENCODING 13
SWIDTH 540 0
DWIDTH 9 0
BBX 8 9 0 -4
BITMAP
1F
18
18
18
18
18
18
18
18
ENDCHAR
STARTCHAR SF020000
ENCODING 14
SWIDTH 540 0
DWIDTH 9 0
BBX 8 8 0 4
BITMAP
18
18
18
18
18
18
18
1F
ENDCHAR
STARTCHAR SF050000
ENCODING 15
SWIDTH 540 0
DWIDTH 9 0
BBX 8 16 0 -4
BITMAP
18
18
18
18
18
18
18
FF
18
18
18
18
18
18
18
18
ENDCHAR
STARTCHAR char16
ENCODING 16
SWIDTH 540 0
DWIDTH 9 0
BBX 8 1 0 9
BITMAP
FF
ENDCHAR
STARTCHAR char17
ENCODING 17
SWIDTH 540 0
DWIDTH 9 0
BBX 8 1 0 7
BITMAP
FF
ENDCHAR
STARTCHAR char18
ENCODING 18
SWIDTH 540 0
DWIDTH 9 0
BBX 8 1 0 4
BITMAP
FF
ENDCHAR
STARTCHAR char19
ENCODING 19
SWIDTH 540 0
DWIDTH 9 0
BBX 8 1 0 2
BITMAP
FF
ENDCHAR
STARTCHAR char20
ENCODING 20
SWIDTH 540 0
DWIDTH 9 0
BBX 8 1 0 -1
BITMAP
FF
ENDCHAR
STARTCHAR SF080000
ENCODING 21
SWIDTH 540 0
DWIDTH 9 0
BBX 8 16 0 -4
BITMAP
18
18
18
18
18
18
18
1F
18
18
18
18
18
18
18
18
ENDCHAR
STARTCHAR SF090000
ENCODING 22
SWIDTH 540 0
DWIDTH 9 0
BBX 8 16 0 -4
BITMAP
18
18
18
18
18
18
18
F8
18
18
18
18
18
18
18
18
ENDCHAR
STARTCHAR SF070000
ENCODING 23
SWIDTH 540 0
DWIDTH 9 0
BBX 8 8 0 4
BITMAP
18
18
18
18
18
18
18
FF
ENDCHAR
STARTCHAR SF060000
ENCODING 24
SWIDTH 540 0
DWIDTH 9 0
BBX 8 9 0 -4
BITMAP
FF
18
18
18
18
18
18
18
18
ENDCHAR
STARTCHAR SF110000
ENCODING 25
SWIDTH 540 0
DWIDTH 9 0
BBX 8 16 0 -4
BITMAP
18
18
18
18
18
18
18
18
18
18
18
18
18
18
18
18
ENDCHAR
STARTCHAR lessequal
ENCODING 26
SWIDTH 540 0
DWIDTH 9 0
BBX 8 9 0 0
BITMAP
0E
1C
38
70
38
1C
0E
00
7E
ENDCHAR
STARTCHAR greaterequal
ENCODING 27
SWIDTH 540 0
DWIDTH 9 0
BBX 8 9 0 0
BITMAP
70
38
1C
0E
1C
38
70
00
7E
ENDCHAR
STARTCHAR pi
ENCODING 28
SWIDTH 540 0
DWIDTH 9 0
BBX 8 7 0 0
BITMAP
FE
EC
6C
6C
6C
6C
6C
ENDCHAR
STARTCHAR notequal
ENCODING 29
SWIDTH 540 0
DWIDTH 9 0
BBX 8 8 0 1
BITMAP
0C
0C
7E
18
18
7E
30
30
ENDCHAR
STARTCHAR currency
ENCODING 30
SWIDTH 540 0
DWIDTH 9 0
BBX 8 8 0 0
BITMAP
81
5A
24
42
42
24
5A
81
ENDCHAR
STARTCHAR twosuperior
ENCODING 31
SWIDTH 540 0
DWIDTH 9 0
BBX 8 7 0 5
BITMAP
70
C8
98
30
60
C8
F8
ENDCHAR
STARTCHAR space
ENCODING 32
SWIDTH 540 0
DWIDTH 9 0
BBX 0 0 0 0
BITMAP
ENDCHAR
STARTCHAR exclam
ENCODING 33
SWIDTH 540 0
DWIDTH 9 0
BBX 8 13 0 -2
BITMAP
18
3C
3C
3C
3C
18
18
18
18
00
18
3C
18
ENDCHAR
STARTCHAR quotedbl
ENCODING 34
SWIDTH 540 0
DWIDTH 9 0
BBX 8 5 0 7
BITMAP
42
E7
63
21
C6
ENDCHAR
STARTCHAR numbersign
ENCODING 35
SWIDTH 540 0
DWIDTH 9 0
BBX 8 13 0 -1
BITMAP
6C
6C
6C
FE
FE
6C
6C
6C
FE
FE
6C
6C
6C
ENDCHAR
STARTCHAR dollar
ENCODING 36
SWIDTH 540 0
DWIDTH 9 0
BBX 8 15 0 -3
BITMAP
18
18
7E
DB
DB
D8
D8
7E
1B
1B
DB
DB
7E
18
18
ENDCHAR
STARTCHAR percent
ENCODING 37
SWIDTH 540 0
DWIDTH 9 0
BBX 8 12 0 -1
BITMAP
E6
A6
EC
0C
18
18
30
30
60
6E
CA
CE
ENDCHAR
STARTCHAR ampersand
ENCODING 38
SWIDTH 540 0
DWIDTH 9 0
BBX 8 12 0 -1
BITMAP
38
6C
6C
6C
38
76
DC
DC
CC
CC
CC
76
ENDCHAR
STARTCHAR quotesingle
ENCODING 39
SWIDTH 540 0
DWIDTH 9 0
BBX 9 4 0 7
BITMAP
3000
3000
3000
2000
ENDCHAR
STARTCHAR parenleft
ENCODING 40
SWIDTH 540 0
DWIDTH 9 0
BBX 8 14 0 -2
BITMAP
06
0C
0C
18
18
18
18
18
18
18
18
0C
0C
06
ENDCHAR
STARTCHAR parenright
ENCODING 41
SWIDTH 540 0
DWIDTH 9 0
BBX 8 14 0 -2
BITMAP
60
30
30
18
18
18
18
18
18
18
18
30
30
60
ENDCHAR
STARTCHAR asterisk
ENCODING 42
SWIDTH 540 0
DWIDTH 9 0
BBX 8 8 0 0
BITMAP
66
66
3C
FF
FF
3C
66
66
ENDCHAR
STARTCHAR plus
ENCODING 43
SWIDTH 540 0
DWIDTH 9 0
BBX 8 8 0 0
BITMAP
18
18
18
FF
FF
18
18
18
ENDCHAR
STARTCHAR comma
ENCODING 44
SWIDTH 540 0
DWIDTH 9 0
BBX 9 5 0 -3
BITMAP
2000
7000
3000
1000
6000
ENDCHAR
STARTCHAR hyphen
ENCODING 45
SWIDTH 540 0
DWIDTH 9 0
BBX 8 2 0 3
BITMAP
FE
FE
ENDCHAR
STARTCHAR period
ENCODING 46
SWIDTH 540 0
DWIDTH 9 0
BBX 9 3 0 -2
BITMAP
2000
7000
2000
ENDCHAR
STARTCHAR slash
ENCODING 47
SWIDTH 540 0
DWIDTH 9 0
BBX 8 12 0 -2
BITMAP
06
06
0C
0C
18
18
30
30
60
60
C0
C0
ENDCHAR
STARTCHAR zero
ENCODING 48
SWIDTH 540 0
DWIDTH 9 0
BBX 8 12 0 -1
BITMAP
7E
C3
C3
C3
CB
DB
D3
C3
C3
C3
C3
7E
ENDCHAR
STARTCHAR one
ENCODING 49
SWIDTH 540 0
DWIDTH 9 0
BBX 8 12 0 -1
BITMAP
18
38
78
F8
18
18
18
18
18
18
18
FF
ENDCHAR
STARTCHAR two
ENCODING 50
SWIDTH 540 0
DWIDTH 9 0
BBX 8 12 0 -1
BITMAP
3C
66
C3
C3
03
06
0C
18
30
60
C3
FF
ENDCHAR
STARTCHAR three
ENCODING 51
SWIDTH 540 0
DWIDTH 9 0
BBX 8 12 0 -1
BITMAP
FE
C6
0C
18
3C
06
03
03
03
C3
66
3C
ENDCHAR
STARTCHAR four
ENCODING 52
SWIDTH 540 0
DWIDTH 9 0
BBX 8 12 0 -1
BITMAP
1C
1C
3C
3C
6C
6C
CC
CD
FF
0D
0C
1E
ENDCHAR
STARTCHAR five
ENCODING 53
SWIDTH 540 0
DWIDTH 9 0
BBX 8 12 0 -1
BITMAP
FE
C0
C0
C0
FC
E6
C3
03
03
C3
66
3C
ENDCHAR
STARTCHAR six
ENCODING 54
SWIDTH 540 0
DWIDTH 9 0
BBX 8 12 0 -1
BITMAP
3E
63
C0
C0
FC
E6
C3
C3
C3
C3
66
3C
ENDCHAR
STARTCHAR seven
ENCODING 55
SWIDTH 540 0
DWIDTH 9 0
BBX 8 12 0 -1
BITMAP
FF
C3
03
06
06
0C
0C
18
18
18
18
18
ENDCHAR
STARTCHAR eight
ENCODING 56
SWIDTH 540 0
DWIDTH 9 0
BBX 8 12 0 -1
BITMAP
3C
66
C3
C3
66
3C
66
C3
C3
C3
66
3C
ENDCHAR
STARTCHAR nine
ENCODING 57
SWIDTH 540 0
DWIDTH 9 0
BBX 8 12 0 -1
BITMAP
3C
66
C3
C3
C3
C3
67
3F
03
03
66
3C
ENDCHAR
STARTCHAR colon
ENCODING 58
SWIDTH 540 0
DWIDTH 9 0
BBX 8 8 0 -1
BITMAP
10
38
10
00
00
10
38
10
ENDCHAR
STARTCHAR semicolon
ENCODING 59
SWIDTH 540 0
DWIDTH 9 0
BBX 9 10 0 -3
BITMAP
2000
7000
2000
0000
0000
2000
7000
3000
1000
6000
ENDCHAR
STARTCHAR less
ENCODING 60
SWIDTH 540 0
DWIDTH 9 0
BBX 8 11 0 -1
BITMAP
06
0C
18
30
60
E0
60
30
18
0C
06
ENDCHAR
STARTCHAR equal
ENCODING 61
SWIDTH 540 0
DWIDTH 9 0
BBX 8 5 0 2
BITMAP
FE
FE
00
FE
FE
ENDCHAR
STARTCHAR greater
ENCODING 62
SWIDTH 540 0
DWIDTH 9 0
BBX 8 11 0 -1
BITMAP
C0
60
30
18
0C
0E
0C
18
30
60
C0
ENDCHAR
STARTCHAR question
ENCODING 63
SWIDTH 540 0
DWIDTH 9 0
BBX 8 12 0 -1
BITMAP
3C
66
C3
C3
03
06
0C
18
18
00
18
18
ENDCHAR
STARTCHAR at
ENCODING 64
SWIDTH 540 0
DWIDTH 9 0
BBX 8 12 0 -1
BITMAP
3C
42
81
99
A5
A5
A5
A5
9B
80
40
3C
ENDCHAR
STARTCHAR A
ENCODING 65
SWIDTH 540 0
DWIDTH 9 0
BBX 8 11 0 -1
BITMAP
18
18
18
3C
2C
2C
2C
7E
46
46
EF
ENDCHAR
STARTCHAR B
ENCODING 66
SWIDTH 540 0
DWIDTH 9 0
BBX 8 11 0 -1
BITMAP
7E
33
33
33
3E
33
33
33
33
33
7E
ENDCHAR
STARTCHAR C
ENCODING 67
SWIDTH 540 0
DWIDTH 9 0
BBX 8 11 0 -1
BITMAP
1D
33
61
60
60
60
60
60
60
31
1E
ENDCHAR
STARTCHAR D
ENCODING 68
SWIDTH 540 0
DWIDTH 9 0
BBX 8 11 0 -1
BITMAP
FC
66
63
63
63
63
63
63
63
66
FC
ENDCHAR
STARTCHAR E
ENCODING 69
SWIDTH 540 0
DWIDTH 9 0
BBX 8 11 0 -1
BITMAP
FF
63
61
64
7C
64
60
60
61
63
FF
ENDCHAR
STARTCHAR F
ENCODING 70
SWIDTH 540 0
DWIDTH 9 0
BBX 8 11 0 -1
BITMAP
FF
63
61
64
7C
64
60
60
60
60
F0
ENDCHAR
STARTCHAR G
ENCODING 71
SWIDTH 540 0
DWIDTH 9 0
BBX 8 11 0 -1
BITMAP
1D
33
61
60
60
67
63
63
63
33
1D
ENDCHAR
STARTCHAR H
ENCODING 72
SWIDTH 540 0
DWIDTH 9 0
BBX 8 11 0 -1
BITMAP
F7
62
62
62
62
7E
62
62
62
62
F7
ENDCHAR
STARTCHAR I
ENCODING 73
SWIDTH 540 0
DWIDTH 9 0
BBX 8 11 0 -1
BITMAP
3C
18
18
18
18
18
18
18
18
18
3C
ENDCHAR
STARTCHAR J
ENCODING 74
SWIDTH 540 0
DWIDTH 9 0
BBX 8 13 0 -3
BITMAP
0F
06
06
06
06
06
06
06
06
06
66
46
3C
ENDCHAR
STARTCHAR K
ENCODING 75
SWIDTH 540 0
DWIDTH 9 0
BBX 8 11 0 -1
BITMAP
F3
67
64
6C
68
78
6C
6C
66
67
F7
ENDCHAR
STARTCHAR L
ENCODING 76
SWIDTH 540 0
DWIDTH 9 0
BBX 8 11 0 -1
BITMAP
F8
60
60
60
60
60
60
60
61
63
FF
ENDCHAR
STARTCHAR M
ENCODING 77
SWIDTH 540 0
DWIDTH 9 0
BBX 8 11 0 -1
BITMAP
C3
66
76
7E
56
56
46
46
46
46
EF
ENDCHAR
STARTCHAR N
ENCODING 78
SWIDTH 540 0
DWIDTH 9 0
BBX 8 11 0 -1
BITMAP
E7
62
72
52
5A
5A
4A
4E
46
46
E2
ENDCHAR
STARTCHAR O
ENCODING 79
SWIDTH 540 0
DWIDTH 9 0
BBX 8 11 0 -1
BITMAP
3C
66
C3
C3
C3
C3
C3
C3
C3
66
3C
ENDCHAR
STARTCHAR P
ENCODING 80
SWIDTH 540 0
DWIDTH 9 0
BBX 8 11 0 -1
BITMAP
7E
33
33
33
33
3E
30
30
30
30
78
ENDCHAR
STARTCHAR Q
ENCODING 81
SWIDTH 540 0
DWIDTH 9 0
BBX 8 13 0 -3
BITMAP
3C
66
C3
C3
C3
C3
C3
C3
FB
6E
3C
19
0E
ENDCHAR
STARTCHAR R
ENCODING 82
SWIDTH 540 0
DWIDTH 9 0
BBX 8 11 0 -1
BITMAP
FC
66
66
66
64
7C
6C
66
66
66
F3
ENDCHAR
STARTCHAR S
ENCODING 83
SWIDTH 540 0
DWIDTH 9 0
BBX 8 11 0 -1
BITMAP
3D
63
61
60
38
1E
07
03
43
63
5E
ENDCHAR
STARTCHAR T
ENCODING 84
SWIDTH 540 0
DWIDTH 9 0
BBX 8 11 0 -1
BITMAP
FF
DB
99
18
18
18
18
18
18
18
3C
ENDCHAR
STARTCHAR U
ENCODING 85
SWIDTH 540 0
DWIDTH 9 0
BBX 8 11 0 -1
BITMAP
F7
62
62
62
62
62
62
62
62
62
3C
ENDCHAR
STARTCHAR V
ENCODING 86
SWIDTH 540 0
DWIDTH 9 0
BBX 8 11 0 -1
BITMAP
F7
62
62
62
76
34
34
3C
18
18
18
ENDCHAR
STARTCHAR W
ENCODING 87
SWIDTH 540 0
DWIDTH 9 0
BBX 8 11 0 -1
BITMAP
E7
C2
D2
DA
DA
DA
DA
DA
DA
FE
64
ENDCHAR
STARTCHAR X
ENCODING 88
SWIDTH 540 0
DWIDTH 9 0
BBX 8 11 0 -1
BITMAP
F7
62
34
34
18
18
18
2C
2C
46
EF
ENDCHAR
STARTCHAR Y
ENCODING 89
SWIDTH 540 0
DWIDTH 9 0
BBX 8 11 0 -1
BITMAP
F7
62
62
34
34
18
18
18
18
18
3C
ENDCHAR
STARTCHAR Z
ENCODING 90
SWIDTH 540 0
DWIDTH 9 0
BBX 8 11 0 -1
BITMAP
FF
C6
84
0C
08
18
10
30
21
63
FF
ENDCHAR
STARTCHAR bracketleft
ENCODING 91
SWIDTH 540 0
DWIDTH 9 0
BBX 8 13 0 -2
BITMAP
1E
18
18
18
18
18
18
18
18
18
18
18
1E
ENDCHAR
STARTCHAR backslash
ENCODING 92
SWIDTH 540 0
DWIDTH 9 0
BBX 8 12 0 -2
BITMAP
C0
C0
60
60
30
30
18
18
0C
0C
06
06
ENDCHAR
STARTCHAR bracketright
ENCODING 93
SWIDTH 540 0
DWIDTH 9 0
BBX 8 13 0 -2
BITMAP
78
18
18
18
18
18
18
18
18
18
18
18
78
ENDCHAR
STARTCHAR asciicircum
ENCODING 94
SWIDTH 540 0
DWIDTH 9 0
BBX 8 4 0 7
BITMAP
10
38
4C
86
ENDCHAR
STARTCHAR underscore
ENCODING 95
SWIDTH 540 0
DWIDTH 9 0
BBX 8 1 0 -2
BITMAP
FF
ENDCHAR
STARTCHAR grave
ENCODING 96
SWIDTH 540 0
DWIDTH 9 0
BBX 8 5 0 6
BITMAP
0C
10
18
1C
08
ENDCHAR
STARTCHAR a
ENCODING 97
SWIDTH 540 0
DWIDTH 9 0
BBX 8 8 0 -1
BITMAP
78
8C
0C
3C
4C
CC
CD
76
ENDCHAR
STARTCHAR b
ENCODING 98
SWIDTH 540 0
DWIDTH 9 0
BBX 8 11 0 -1
BITMAP
E0
60
60
6C
76
63
63
63
63
76
6C
ENDCHAR
STARTCHAR c
ENCODING 99
SWIDTH 540 0
DWIDTH 9 0
BBX 8 8 0 -1
BITMAP
3C
66
60
60
60
60
62
3C
ENDCHAR
STARTCHAR d
ENCODING 100
SWIDTH 540 0
DWIDTH 9 0
BBX 8 11 0 -1
BITMAP
0E
06
06
36
6E
C6
C6
C6
C6
6E
33
ENDCHAR
STARTCHAR e
ENCODING 101
SWIDTH 540 0
DWIDTH 9 0
BBX 8 8 0 -1
BITMAP
7C
C6
C6
FE
C0
C0
C6
7C
ENDCHAR
STARTCHAR f
ENCODING 102
SWIDTH 540 0
DWIDTH 9 0
BBX 8 11 0 -1
BITMAP
1E
31
33
30
78
30
30
30
30
30
78
ENDCHAR
STARTCHAR g
ENCODING 103
SWIDTH 540 0
DWIDTH 9 0
BBX 8 11 0 -4
BITMAP
7E
CC
C6
C6
C6
7C
60
7C
C6
C6
7C
ENDCHAR
STARTCHAR h
ENCODING 104
SWIDTH 540 0
DWIDTH 9 0
BBX 8 11 0 -1
BITMAP
E0
60
60
6C
76
63
63
63
63
63
F7
ENDCHAR
STARTCHAR i
ENCODING 105
SWIDTH 540 0
DWIDTH 9 0
BBX 8 12 0 -1
BITMAP
10
38
10
00
38
18
18
18
18
18
18
7C
ENDCHAR
STARTCHAR j
ENCODING 106
SWIDTH 540 0
DWIDTH 9 0
BBX 8 14 0 -3
BITMAP
08
1C
08
00
1C
0C
0C
0C
0C
0C
0C
6C
4C
38
ENDCHAR
STARTCHAR k
ENCODING 107
SWIDTH 540 0
DWIDTH 9 0
BBX 8 11 0 -1
BITMAP
E0
60
60
67
66
6C
78
78
6C
66
E7
ENDCHAR
STARTCHAR l
ENCODING 108
SWIDTH 540 0
DWIDTH 9 0
BBX 8 11 0 -1
BITMAP
38
18
18
18
18
18
18
18
18
18
3C
ENDCHAR
STARTCHAR m
ENCODING 109
SWIDTH 540 0
DWIDTH 9 0
BBX 8 8 0 -1
BITMAP
D6
FF
DB
DB
DB
DB
DB
DB
ENDCHAR
STARTCHAR n
ENCODING 110
SWIDTH 540 0
DWIDTH 9 0
BBX 8 8 0 -1
BITMAP
DC
76
63
63
63
63
63
F7
ENDCHAR
STARTCHAR o
ENCODING 111
SWIDTH 540 0
DWIDTH 9 0
BBX 8 8 0 -1
BITMAP
7C
C6
C6
C6
C6
C6
C6
7C
ENDCHAR
STARTCHAR p
ENCODING 112
SWIDTH 540 0
DWIDTH 9 0
BBX 8 11 0 -4
BITMAP
DC
66
63
63
63
63
66
7C
60
60
F0
ENDCHAR
STARTCHAR q
ENCODING 113
SWIDTH 540 0
DWIDTH 9 0
BBX 8 11 0 -4
BITMAP
3B
66
C6
C6
C6
C6
66
3E
06
06
0F
ENDCHAR
STARTCHAR r
ENCODING 114
SWIDTH 540 0
DWIDTH 9 0
BBX 8 8 0 -1
BITMAP
DF
73
60
60
60
60
60
F0
ENDCHAR
STARTCHAR s
ENCODING 115
SWIDTH 540 0
DWIDTH 9 0
BBX 8 8 0 -1
BITMAP
7A
C6
C2
70
1C
86
C6
BC
ENDCHAR
STARTCHAR t
ENCODING 116
SWIDTH 540 0
DWIDTH 9 0
BBX 8 10 0 -1
BITMAP
10
30
7E
30
30
30
30
32
32
1C
ENDCHAR
STARTCHAR u
ENCODING 117
SWIDTH 540 0
DWIDTH 9 0
BBX 8 8 0 -1
BITMAP
CE
C6
C6
C6
C6
C6
C6
7B
ENDCHAR
STARTCHAR v
ENCODING 118
SWIDTH 540 0
DWIDTH 9 0
BBX 8 8 0 -1
BITMAP
F7
63
62
76
34
3C
18
18
ENDCHAR
STARTCHAR w
ENCODING 119
SWIDTH 540 0
DWIDTH 9 0
BBX 8 8 0 -1
BITMAP
E7
D2
DA
DA
DA
DA
FE
44
ENDCHAR
STARTCHAR x
ENCODING 120
SWIDTH 540 0
DWIDTH 9 0
BBX 8 8 0 -1
BITMAP
E7
C3
66
34
18
2C
46
EF
ENDCHAR
STARTCHAR y
ENCODING 121
SWIDTH 540 0
DWIDTH 9 0
BBX 8 11 0 -4
BITMAP
F7
63
62
36
34
1C
18
18
10
B0
E0
ENDCHAR
STARTCHAR z
ENCODING 122
SWIDTH 540 0
DWIDTH 9 0
BBX 8 8 0 -1
BITMAP
FE
86
4C
18
30
60
C2
FE
ENDCHAR
STARTCHAR braceleft
ENCODING 123
SWIDTH 540 0
DWIDTH 9 0
BBX 8 13 0 -2
BITMAP
07
0C
0C
0C
0C
38
70
38
0C
0C
0C
0C
07
ENDCHAR
STARTCHAR bar
ENCODING 124
SWIDTH 540 0
DWIDTH 9 0
BBX 8 14 0 -3
BITMAP
18
18
18
18
18
18
08
10
18
18
18
18
18
18
ENDCHAR
STARTCHAR braceright
ENCODING 125
SWIDTH 540 0
DWIDTH 9 0
BBX 8 13 0 -2
BITMAP
E0
30
30
30
30
3C
1E
3C
30
30
30
30
E0
ENDCHAR
STARTCHAR asciitilde
ENCODING 126
SWIDTH 540 0
DWIDTH 9 0
BBX 8 3 0 7
BITMAP
76
DC
88
ENDCHAR
STARTCHAR not
ENCODING 127
SWIDTH 540 0
DWIDTH 9 0
BBX 8 4 0 1
BITMAP
7F
7F
03
03
ENDCHAR
STARTCHAR afii10051
ENCODING 128
SWIDTH 540 0
DWIDTH 9 0
BBX 8 10 0 0
BITMAP
F0
60
60
6C
76
66
66
66
66
EC
ENDCHAR
STARTCHAR afii10052
ENCODING 129
SWIDTH 540 0
DWIDTH 9 0
BBX 8 12 0 0
BITMAP
18
30
FE
C6
C0
C0
C0
C0
C0
C0
C0
C0
ENDCHAR
STARTCHAR cedilla
ENCODING 130
SWIDTH 540 0
DWIDTH 9 0
BBX 8 5 0 -3
BITMAP
08
1C
0C
04
18
ENDCHAR
STARTCHAR afii10100
ENCODING 131
SWIDTH 540 0
DWIDTH 9 0
BBX 8 10 0 0
BITMAP
18
30
00
FE
C6
C0
C0
C0
C0
C0
ENDCHAR
STARTCHAR quotedblbase
ENCODING 132
SWIDTH 540 0
DWIDTH 9 0
BBX 8 3 0 -1
BITMAP
36
36
6C
ENDCHAR
STARTCHAR ellipsis
ENCODING 133
SWIDTH 540 0
DWIDTH 9 0
BBX 8 2 0 0
BITMAP
DB
DB
ENDCHAR
STARTCHAR dagger
ENCODING 134
SWIDTH 540 0
DWIDTH 9 0
BBX 8 10 0 0
BITMAP
10
38
54
FE
54
10
10
38
10
10
ENDCHAR
STARTCHAR section
ENCODING 135
SWIDTH 540 0
DWIDTH 9 0
BBX 8 12 0 -1
BITMAP
7C
C6
60
38
6C
C6
C6
6C
38
0C
C6
7C
ENDCHAR
STARTCHAR Euro
ENCODING 136
SWIDTH 540 0
DWIDTH 9 0
BBX 8 10 0 0
BITMAP
1E
33
61
F8
60
F8
60
61
33
1E
ENDCHAR
STARTCHAR dieresis
ENCODING 137
SWIDTH 540 0
DWIDTH 9 0
BBX 8 2 0 9
BITMAP
36
36
ENDCHAR
STARTCHAR afii10058
ENCODING 138
SWIDTH 540 0
DWIDTH 9 0
BBX 8 10 0 0
BITMAP
3C
6C
6C
6C
6E
6D
6D
6D
6D
CE
ENDCHAR
STARTCHAR guilsinglleft
ENCODING 139
SWIDTH 540 0
DWIDTH 9 0
BBX 8 10 0 0
BITMAP
0C
0C
18
18
30
30
18
18
0C
0C
ENDCHAR
STARTCHAR afii10059
ENCODING 140
SWIDTH 540 0
DWIDTH 9 0
BBX 8 10 0 0
BITMAP
CC
CC
CC
CC
FE
CD
CD
CD
CD
CE
ENDCHAR
STARTCHAR afii10061
ENCODING 141
SWIDTH 540 0
DWIDTH 9 0
BBX 8 12 0 0
BITMAP
18
30
C6
C6
CC
D8
F0
F0
D8
CC
C6
C6
ENDCHAR
STARTCHAR afii10060
ENCODING 142
SWIDTH 540 0
DWIDTH 9 0
BBX 8 11 0 0
BITMAP
F0
60
60
60
7C
66
66
66
66
66
E7
ENDCHAR
STARTCHAR afii10145
ENCODING 143
SWIDTH 540 0
DWIDTH 9 0
BBX 8 13 0 -3
BITMAP
C6
C6
C6
C6
C6
C6
C6
C6
C6
FE
10
10
38
ENDCHAR
STARTCHAR afii10099
ENCODING 144
SWIDTH 540 0
DWIDTH 9 0
BBX 8 13 0 -3
BITMAP
60
F0
60
6C
76
66
66
66
66
E6
06
0C
18
ENDCHAR
STARTCHAR quoteleft
ENCODING 145
SWIDTH 540 0
DWIDTH 9 0
BBX 8 5 0 6
BITMAP
0C
10
18
1C
08
ENDCHAR
STARTCHAR quoteright
ENCODING 146
SWIDTH 540 0
DWIDTH 9 0
BBX 8 5 0 6
BITMAP
08
1C
0C
04
18
ENDCHAR
STARTCHAR quotedblleft
ENCODING 147
SWIDTH 540 0
DWIDTH 9 0
BBX 8 3 0 7
BITMAP
6C
6C
36
ENDCHAR
STARTCHAR quotedblright
ENCODING 148
SWIDTH 540 0
DWIDTH 9 0
BBX 8 3 0 7
BITMAP
36
36
6C
ENDCHAR
STARTCHAR bullet
ENCODING 149
SWIDTH 540 0
DWIDTH 9 0
BBX 8 5 0 2
BITMAP
38
7C
7C
7C
38
ENDCHAR
STARTCHAR endash
ENCODING 150
SWIDTH 540 0
DWIDTH 9 0
BBX 8 2 0 4
BITMAP
7E
7E
ENDCHAR
STARTCHAR emdash
ENCODING 151
SWIDTH 540 0
DWIDTH 9 0
BBX 8 2 0 4
BITMAP
FF
FF
ENDCHAR
STARTCHAR sterling
ENCODING 152
SWIDTH 540 0
DWIDTH 9 0
BBX 8 10 0 0
BITMAP
38
6C
60
60
F8
60
60
60
66
FC
ENDCHAR
STARTCHAR periodcentered
ENCODING 153
SWIDTH 540 0
DWIDTH 9 0
BBX 8 2 0 4
BITMAP
18
18
ENDCHAR
STARTCHAR afii10106
ENCODING 154
SWIDTH 540 0
DWIDTH 9 0
BBX 8 7 0 0
BITMAP
3C
6C
6C
6E
6D
6D
CE
ENDCHAR
STARTCHAR guilsinglright
ENCODING 155
SWIDTH 540 0
DWIDTH 9 0
BBX 8 10 0 0
BITMAP
30
30
18
18
0C
0C
18
18
30
30
ENDCHAR
STARTCHAR afii10107
ENCODING 156
SWIDTH 540 0
DWIDTH 9 0
BBX 8 7 0 0
BITMAP
CC
CC
CC
FE
CD
CD
CE
ENDCHAR
STARTCHAR afii10109
ENCODING 157
SWIDTH 540 0
DWIDTH 9 0
BBX 8 10 0 0
BITMAP
18
30
00
C6
CC
D8
F8
D8
CC
C6
ENDCHAR
STARTCHAR afii10108
ENCODING 158
SWIDTH 540 0
DWIDTH 9 0
BBX 8 11 0 0
BITMAP
60
F8
60
60
7C
76
66
66
66
66
E7
ENDCHAR
STARTCHAR afii10193
ENCODING 159
SWIDTH 540 0
DWIDTH 9 0
BBX 8 10 0 -3
BITMAP
C6
C6
C6
C6
C6
C6
FE
10
10
38
ENDCHAR
STARTCHAR space
ENCODING 160
SWIDTH 540 0
DWIDTH 9 0
BBX 0 0 0 0
BITMAP
ENDCHAR
STARTCHAR afii10196
ENCODING 161
SWIDTH 540 0
DWIDTH 9 0
BBX 8 8 0 -1
BITMAP
F3
67
66
76
3C
3C
18
18
ENDCHAR
STARTCHAR afii10194
ENCODING 162
SWIDTH 540 0
DWIDTH 9 0
BBX 8 11 0 -1
BITMAP
70
30
FC
F4
BE
33
33
33
33
33
7E
ENDCHAR
STARTCHAR afii10071
ENCODING 163
SWIDTH 540 0
DWIDTH 9 0
BBX 8 12 0 -1
BITMAP
6C
6C
00
7C
C6
C6
C6
FC
C0
C0
C6
7C
ENDCHAR
STARTCHAR afii10101
ENCODING 164
SWIDTH 540 0
DWIDTH 9 0
BBX 8 9 0 -1
BITMAP
7A
C6
C2
60
38
0C
86
C6
BC
ENDCHAR
STARTCHAR afii10102
ENCODING 165
SWIDTH 540 0
DWIDTH 9 0
BBX 8 9 0 -1
BITMAP
7C
C6
C0
C0
FC
C0
C0
C6
7C
ENDCHAR
STARTCHAR afii10103
ENCODING 166
SWIDTH 540 0
DWIDTH 9 0
BBX 8 12 0 -1
BITMAP
18
18
00
38
18
18
18
18
18
18
18
3C
ENDCHAR
STARTCHAR afii10104
ENCODING 167
SWIDTH 540 0
DWIDTH 9 0
BBX 8 12 0 -1
BITMAP
3C
28
00
38
18
18
18
18
18
18
18
3C
ENDCHAR
STARTCHAR afii10105
ENCODING 168
SWIDTH 540 0
DWIDTH 9 0
BBX 8 14 0 -3
BITMAP
0C
0C
00
1C
0C
0C
0C
0C
0C
0C
0C
0C
4C
38
ENDCHAR
STARTCHAR registered
ENCODING 169
SWIDTH 540 0
DWIDTH 9 0
BBX 8 9 0 0
BITMAP
7E
C3
DB
D7
DB
D7
D7
C3
7E
ENDCHAR
STARTCHAR trademark
ENCODING 170
SWIDTH 540 0
DWIDTH 9 0
BBX 8 4 0 5
BITMAP
F9
6F
6F
69
ENDCHAR
STARTCHAR guillemotleft
ENCODING 171
SWIDTH 540 0
DWIDTH 9 0
BBX 8 9 0 0
BITMAP
0D
1B
36
6C
D8
6C
36
1B
0D
ENDCHAR
STARTCHAR afii10195
ENCODING 172
SWIDTH 540 0
DWIDTH 9 0
BBX 8 9 0 -1
BITMAP
7C
C6
C6
C6
FE
C6
C6
C6
7C
ENDCHAR
STARTCHAR afii10098
ENCODING 173
SWIDTH 540 0
DWIDTH 9 0
BBX 8 10 0 -1
BITMAP
03
FF
60
60
60
60
60
60
60
F0
ENDCHAR
STARTCHAR afii10110
ENCODING 174
SWIDTH 540 0
DWIDTH 9 0
BBX 8 12 0 -3
BITMAP
38
10
C6
C6
C6
C6
C6
C6
7E
06
C6
7C
ENDCHAR
STARTCHAR acute
ENCODING 175
SWIDTH 540 0
DWIDTH 9 0
BBX 9 3 0 8
BITMAP
0C00
0800
1000
ENDCHAR
STARTCHAR degree
ENCODING 176
SWIDTH 540 0
DWIDTH 9 0
BBX 8 5 0 6
BITMAP
38
6C
6C
6C
38
ENDCHAR
STARTCHAR afii10148
ENCODING 177
SWIDTH 540 0
DWIDTH 9 0
BBX 8 11 0 -1
BITMAP
F0
63
67
66
76
34
34
3C
18
18
18
ENDCHAR
STARTCHAR afii10146
ENCODING 178
SWIDTH 540 0
DWIDTH 9 0
BBX 8 13 0 -1
BITMAP
70
30
FC
FC
B4
3E
33
33
33
33
33
33
7E
ENDCHAR
STARTCHAR afii10023
ENCODING 179
SWIDTH 540 0
DWIDTH 9 0
BBX 8 13 0 -1
BITMAP
66
66
FF
63
61
60
64
7C
64
60
61
63
FF
ENDCHAR
STARTCHAR afii10053
ENCODING 180
SWIDTH 540 0
DWIDTH 9 0
BBX 8 12 0 -1
BITMAP
3D
63
61
60
60
38
1E
07
03
43
63
5E
ENDCHAR
STARTCHAR afii10054
ENCODING 181
SWIDTH 540 0
DWIDTH 9 0
BBX 8 12 0 -1
BITMAP
3C
66
C3
C3
C8
F8
C8
C0
C3
C3
66
3C
ENDCHAR
STARTCHAR afii10055
ENCODING 182
SWIDTH 540 0
DWIDTH 9 0
BBX 8 12 0 -1
BITMAP
3C
18
18
18
18
18
18
18
18
18
18
3C
ENDCHAR
STARTCHAR afii10056
ENCODING 183
SWIDTH 540 0
DWIDTH 9 0
BBX 8 13 0 -1
BITMAP
36
24
3C
18
18
18
18
18
18
18
18
18
3C
ENDCHAR
STARTCHAR afii10057
ENCODING 184
SWIDTH 540 0
DWIDTH 9 0
BBX 8 13 0 -3
BITMAP
1E
0C
0C
0C
0C
0C
0C
0C
0C
0C
CC
8C
78
ENDCHAR
STARTCHAR afii61352
ENCODING 185
SWIDTH 540 0
DWIDTH 9 0
BBX 8 11 0 -1
BITMAP
96
DD
DE
F8
FF
F8
F8
D8
D8
D8
C8
ENDCHAR
STARTCHAR cent
ENCODING 186
SWIDTH 540 0
DWIDTH 9 0
BBX 8 10 0 -2
BITMAP
08
3C
6A
68
68
68
68
6A
3C
08
ENDCHAR
STARTCHAR guillemotright
ENCODING 187
SWIDTH 540 0
DWIDTH 9 0
BBX 8 9 0 0
BITMAP
B0
D8
6C
36
1B
36
6C
D8
B0
ENDCHAR
STARTCHAR afii10147
ENCODING 188
SWIDTH 540 0
DWIDTH 9 0
BBX 8 12 0 -1
BITMAP
3C
66
C3
C3
C3
FF
C3
C3
C3
C3
66
3C
ENDCHAR
STARTCHAR afii10050
ENCODING 189
SWIDTH 540 0
DWIDTH 9 0
BBX 8 13 0 -1
BITMAP
03
FF
60
60
60
60
60
60
60
60
60
60
F0
ENDCHAR
STARTCHAR afii10062
ENCODING 190
SWIDTH 540 0
DWIDTH 9 0
BBX 8 13 0 -1
BITMAP
3C
DB
C3
C3
C3
C3
C3
7F
03
03
C3
C6
7C
ENDCHAR
STARTCHAR copyright
ENCODING 191
SWIDTH 540 0
DWIDTH 9 0
BBX 8 9 0 0
BITMAP
7E
C3
DB
F7
F3
F7
DB
C3
7E
ENDCHAR
STARTCHAR afii10096
ENCODING 192
SWIDTH 540 0
DWIDTH 9 0
BBX 8 9 0 -1
BITMAP
CE
DB
DB
DB
FB
DB
DB
DB
CE
ENDCHAR
STARTCHAR afii10065
ENCODING 193
SWIDTH 540 0
DWIDTH 9 0
BBX 8 9 0 -1
BITMAP
78
0C
7C
CC
CC
CC
CC
CC
76
ENDCHAR
STARTCHAR afii10066
ENCODING 194
SWIDTH 540 0
DWIDTH 9 0
BBX 8 12 0 -1
BITMAP
06
7E
C0
78
CC
C6
C6
C6
C6
C6
C6
7C
ENDCHAR
STARTCHAR afii10088
ENCODING 195
SWIDTH 540 0
DWIDTH 9 0
BBX 8 11 0 -3
BITMAP
C6
C6
C6
C6
C6
C6
C6
C6
FF
03
03
ENDCHAR
STARTCHAR afii10069
ENCODING 196
SWIDTH 540 0
DWIDTH 9 0
BBX 8 11 0 -3
BITMAP
3E
66
66
66
66
66
66
66
FF
C3
81
ENDCHAR
STARTCHAR afii10070
ENCODING 197
SWIDTH 540 0
DWIDTH 9 0
BBX 8 9 0 -1
BITMAP
7C
C6
C6
C6
FC
C0
C0
C6
7C
ENDCHAR
STARTCHAR afii10086
ENCODING 198
SWIDTH 540 0
DWIDTH 9 0
BBX 8 13 0 -3
BITMAP
18
18
7E
DB
DB
DB
DB
DB
DB
DB
7E
18
18
ENDCHAR
STARTCHAR afii10068
ENCODING 199
SWIDTH 540 0
DWIDTH 9 0
BBX 8 9 0 -1
BITMAP
FE
66
62
60
60
60
60
60
F0
ENDCHAR
STARTCHAR afii10087
ENCODING 200
SWIDTH 540 0
DWIDTH 9 0
BBX 8 9 0 -1
BITMAP
C6
C6
EE
7C
38
38
7C
EE
C6
ENDCHAR
STARTCHAR afii10074
ENCODING 201
SWIDTH 540 0
DWIDTH 9 0
BBX 8 9 0 -1
BITMAP
C6
C6
CE
DE
F6
E6
C6
C6
C6
ENDCHAR
STARTCHAR afii10075
ENCODING 202
SWIDTH 540 0
DWIDTH 9 0
BBX 8 12 0 -1
BITMAP
66
3C
00
C6
C6
CE
DE
F6
E6
C6
C6
C6
ENDCHAR
STARTCHAR afii10076
ENCODING 203
SWIDTH 540 0
DWIDTH 9 0
BBX 8 9 0 -1
BITMAP
E6
66
66
6C
78
6C
66
66
E6
ENDCHAR
STARTCHAR afii10077
ENCODING 204
SWIDTH 540 0
DWIDTH 9 0
BBX 8 9 0 -1
BITMAP
3E
66
66
66
66
66
66
66
E6
ENDCHAR
STARTCHAR afii10078
ENCODING 205
SWIDTH 540 0
DWIDTH 9 0
BBX 8 9 0 -1
BITMAP
C3
E7
FF
DB
DB
C3
C3
C3
C3
ENDCHAR
STARTCHAR afii10079
ENCODING 206
SWIDTH 540 0
DWIDTH 9 0
BBX 8 9 0 -1
BITMAP
C6
C6
C6
C6
FE
C6
C6
C6
C6
ENDCHAR
STARTCHAR afii10080
ENCODING 207
SWIDTH 540 0
DWIDTH 9 0
BBX 8 9 0 -1
BITMAP
7C
C6
C6
C6
C6
C6
C6
C6
7C
ENDCHAR
STARTCHAR afii10081
ENCODING 208
SWIDTH 540 0
DWIDTH 9 0
BBX 8 9 0 -1
BITMAP
FE
C6
C6
C6
C6
C6
C6
C6
C6
ENDCHAR
STARTCHAR afii10097
ENCODING 209
SWIDTH 540 0
DWIDTH 9 0
BBX 8 9 0 -1
BITMAP
7E
C6
C6
C6
7E
36
36
66
E6
ENDCHAR
STARTCHAR afii10082
ENCODING 210
SWIDTH 540 0
DWIDTH 9 0
BBX 8 12 0 -4
BITMAP
DE
63
63
63
63
63
63
63
7E
60
60
F0
ENDCHAR
STARTCHAR afii10083
ENCODING 211
SWIDTH 540 0
DWIDTH 9 0
BBX 8 9 0 -1
BITMAP
7C
C6
C0
C0
C0
C0
C0
C6
7C
ENDCHAR
STARTCHAR afii10084
ENCODING 212
SWIDTH 540 0
DWIDTH 9 0
BBX 8 9 0 -1
BITMAP
FF
DB
99
18
18
18
18
18
3C
ENDCHAR
STARTCHAR afii10085
ENCODING 213
SWIDTH 540 0
DWIDTH 9 0
BBX 8 12 0 -4
BITMAP
C6
C6
C6
C6
C6
C6
C6
7E
06
06
C6
7C
ENDCHAR
STARTCHAR afii10072
ENCODING 214
SWIDTH 540 0
DWIDTH 9 0
BBX 8 9 0 -1
BITMAP
DB
DB
DB
7E
3C
7E
DB
DB
DB
ENDCHAR
STARTCHAR afii10067
ENCODING 215
SWIDTH 540 0
DWIDTH 9 0
BBX 8 9 0 -1
BITMAP
FC
C6
C6
FC
C6
C6
C6
C6
FC
ENDCHAR
STARTCHAR afii10094
ENCODING 216
SWIDTH 540 0
DWIDTH 9 0
BBX 8 9 0 -1
BITMAP
F0
60
7C
66
66
66
66
66
FC
ENDCHAR
STARTCHAR afii10093
ENCODING 217
SWIDTH 540 0
DWIDTH 9 0
BBX 8 9 0 -1
BITMAP
C3
C3
C3
F3
DB
DB
DB
DB
F3
ENDCHAR
STARTCHAR afii10073
ENCODING 218
SWIDTH 540 0
DWIDTH 9 0
BBX 8 9 0 -1
BITMAP
7C
C6
C6
06
1C
06
C6
C6
7C
ENDCHAR
STARTCHAR afii10090
ENCODING 219
SWIDTH 540 0
DWIDTH 9 0
BBX 8 9 0 -1
BITMAP
DB
DB
DB
DB
DB
DB
DB
DB
FF
ENDCHAR
STARTCHAR afii10095
ENCODING 220
SWIDTH 540 0
DWIDTH 9 0
BBX 8 9 0 -1
BITMAP
7C
C6
06
06
7E
06
06
C6
7C
ENDCHAR
STARTCHAR afii10091
ENCODING 221
SWIDTH 540 0
DWIDTH 9 0
BBX 8 11 0 -3
BITMAP
DB
DB
DB
DB
DB
DB
DB
DB
FF
03
03
ENDCHAR
STARTCHAR afii10089
ENCODING 222
SWIDTH 540 0
DWIDTH 9 0
BBX 8 9 0 -1
BITMAP
C6
C6
C6
C6
C6
7E
06
06
06
ENDCHAR
STARTCHAR afii10092
ENCODING 223
SWIDTH 540 0
DWIDTH 9 0
BBX 8 9 0 -1
BITMAP
F0
F0
BE
33
33
33
33
33
7E
ENDCHAR
STARTCHAR afii10048
ENCODING 224
SWIDTH 540 0
DWIDTH 9 0
BBX 8 12 0 -1
BITMAP
CE
DB
DB
DB
DB
FB
DB
DB
DB
DB
DB
CE
ENDCHAR
STARTCHAR afii10017
ENCODING 225
SWIDTH 540 0
DWIDTH 9 0
BBX 8 12 0 -1
BITMAP
08
1C
3E
77
63
63
63
63
7F
63
63
63
ENDCHAR
STARTCHAR afii10018
ENCODING 226
SWIDTH 540 0
DWIDTH 9 0
BBX 8 12 0 -1
BITMAP
FF
63
61
60
60
7E
63
63
63
63
63
FE
ENDCHAR
STARTCHAR afii10040
ENCODING 227
SWIDTH 540 0
DWIDTH 9 0
BBX 8 14 0 -3
BITMAP
C6
C6
C6
C6
C6
C6
C6
C6
C6
C6
C6
FF
03
03
ENDCHAR
STARTCHAR afii10021
ENCODING 228
SWIDTH 540 0
DWIDTH 9 0
BBX 8 13 0 -2
BITMAP
3E
66
66
66
66
66
66
66
66
66
66
FF
C3
ENDCHAR
STARTCHAR afii10022
ENCODING 229
SWIDTH 540 0
DWIDTH 9 0
BBX 8 12 0 -1
BITMAP
FF
63
61
60
64
7C
64
60
60
61
63
FF
ENDCHAR
STARTCHAR afii10038
ENCODING 230
SWIDTH 540 0
DWIDTH 9 0
BBX 8 12 0 -1
BITMAP
3C
18
7E
DB
DB
DB
DB
DB
DB
7E
18
3C
ENDCHAR
STARTCHAR afii10020
ENCODING 231
SWIDTH 540 0
DWIDTH 9 0
BBX 8 12 0 -1
BITMAP
FF
63
61
60
60
60
60
60
60
60
60
F0
ENDCHAR
STARTCHAR afii10039
ENCODING 232
SWIDTH 540 0
DWIDTH 9 0
BBX 8 12 0 -1
BITMAP
63
63
36
36
1C
1C
1C
1C
36
36
63
63
ENDCHAR
STARTCHAR afii10026
ENCODING 233
SWIDTH 540 0
DWIDTH 9 0
BBX 8 12 0 -1
BITMAP
63
63
67
67
6F
6B
7B
73
73
63
63
63
ENDCHAR
STARTCHAR afii10027
ENCODING 234
SWIDTH 540 0
DWIDTH 9 0
BBX 8 13 0 -1
BITMAP
36
1C
63
63
67
67
6F
6B
7B
73
73
63
63
ENDCHAR
STARTCHAR afii10028
ENCODING 235
SWIDTH 540 0
DWIDTH 9 0
BBX 8 12 0 -1
BITMAP
E3
63
66
66
6C
7C
6C
66
66
63
63
E3
ENDCHAR
STARTCHAR afii10029
ENCODING 236
SWIDTH 540 0
DWIDTH 9 0
BBX 8 12 0 -1
BITMAP
1F
33
63
63
63
63
63
63
63
63
E3
E3
ENDCHAR
STARTCHAR afii10030
ENCODING 237
SWIDTH 540 0
DWIDTH 9 0
BBX 8 12 0 -1
BITMAP
C3
E7
FF
FF
DB
DB
DB
C3
C3
C3
C3
C3
ENDCHAR
STARTCHAR afii10031
ENCODING 238
SWIDTH 540 0
DWIDTH 9 0
BBX 8 12 0 -1
BITMAP
63
63
63
63
63
7F
63
63
63
63
63
63
ENDCHAR
STARTCHAR afii10032
ENCODING 239
SWIDTH 540 0
DWIDTH 9 0
BBX 8 12 0 -1
BITMAP
3C
66
C3
C3
C3
C3
C3
C3
C3
C3
66
3C
ENDCHAR
STARTCHAR afii10033
ENCODING 240
SWIDTH 540 0
DWIDTH 9 0
BBX 8 12 0 -1
BITMAP
7F
63
63
63
63
63
63
63
63
63
63
63
ENDCHAR
STARTCHAR afii10049
ENCODING 241
SWIDTH 540 0
DWIDTH 9 0
BBX 8 12 0 -1
BITMAP
7F
C6
C6
C6
C6
C6
7E
36
66
66
66
EF
ENDCHAR
STARTCHAR afii10034
ENCODING 242
SWIDTH 540 0
DWIDTH 9 0
BBX 8 12 0 -1
BITMAP
FE
63
63
63
63
63
7E
60
60
60
60
F0
ENDCHAR
STARTCHAR afii10035
ENCODING 243
SWIDTH 540 0
DWIDTH 9 0
BBX 8 12 0 -1
BITMAP
3C
66
C3
C3
C0
C0
C0
C0
C3
C3
66
3C
ENDCHAR
STARTCHAR afii10036
ENCODING 244
SWIDTH 540 0
DWIDTH 9 0
BBX 8 12 0 -1
BITMAP
FF
DB
99
18
18
18
18
18
18
18
18
3C
ENDCHAR
STARTCHAR afii10037
ENCODING 245
SWIDTH 540 0
DWIDTH 9 0
BBX 8 12 0 -1
BITMAP
C3
C3
C3
C3
C3
C3
7F
03
03
C3
C6
7C
ENDCHAR
STARTCHAR afii10024
ENCODING 246
SWIDTH 540 0
DWIDTH 9 0
BBX 8 12 0 -1
BITMAP
DB
DB
DB
DB
7E
3C
7E
DB
DB
DB
DB
DB
ENDCHAR
STARTCHAR afii10019
ENCODING 247
SWIDTH 540 0
DWIDTH 9 0
BBX 8 12 0 -1
BITMAP
FE
63
63
63
63
7E
63
63
63
63
63
FE
ENDCHAR
STARTCHAR afii10046
ENCODING 248
SWIDTH 540 0
DWIDTH 9 0
BBX 8 12 0 -1
BITMAP
F0
60
60
60
60
7E
63
63
63
63
63
FE
ENDCHAR
STARTCHAR afii10045
ENCODING 249
SWIDTH 540 0
DWIDTH 9 0
BBX 8 12 0 -1
BITMAP
C3
C3
C3
C3
C3
F3
DB
DB
DB
DB
DB
F3
ENDCHAR
STARTCHAR afii10025
ENCODING 250
SWIDTH 540 0
DWIDTH 9 0
BBX 8 12 0 -1
BITMAP
7E
C3
C3
03
07
3E
07
03
03
C3
C3
7E
ENDCHAR
STARTCHAR afii10042
ENCODING 251
SWIDTH 540 0
DWIDTH 9 0
BBX 8 12 0 -1
BITMAP
DB
DB
DB
DB
DB
DB
DB
DB
DB
DB
DB
FF
ENDCHAR
STARTCHAR afii10047
ENCODING 252
SWIDTH 540 0
DWIDTH 9 0
BBX 8 12 0 -1
BITMAP
3C
66
C3
C3
13
1F
13
03
C3
C3
66
3C
ENDCHAR
STARTCHAR afii10043
ENCODING 253
SWIDTH 540 0
DWIDTH 9 0
BBX 8 14 0 -3
BITMAP
DB
DB
DB
DB
DB
DB
DB
DB
DB
DB
DB
FF
03
03
ENDCHAR
STARTCHAR afii10041
ENCODING 254
SWIDTH 540 0
DWIDTH 9 0
BBX 8 12 0 -1
BITMAP
63
63
63
63
63
63
3F
03
03
03
03
03
ENDCHAR
STARTCHAR afii10044
ENCODING 255
SWIDTH 540 0
DWIDTH 9 0
BBX 8 12 0 -1
BITMAP
F0
F0
B0
30
3E
33
33
33
33
33
33
7E
ENDCHAR
ENDFONT
